<svg
   xmlns:dc="http://purl.org/dc/elements/1.1/"
   xmlns:cc="http://creativecommons.org/ns#"
   xmlns:rdf="http://www.w3.org/1999/02/22-rdf-syntax-ns#"
   xmlns:svg="http://www.w3.org/2000/svg"
   xmlns="http://www.w3.org/2000/svg"
   xmlns:sodipodi="http://sodipodi.sourceforge.net/DTD/sodipodi-0.dtd"
   xmlns:inkscape="http://www.inkscape.org/namespaces/inkscape"
   inkscape:version="1.0 (4035a4fb49, 2020-05-01)"
   sodipodi:docname="youtube.svg"
   id="svg4"
   version="1.1"
   viewBox="0 0 384 374"
   height="24"
   width="24"
   class="{{ with .class }}{{ . }} {{ end }} icon">
  <metadata
     id="metadata10">
    <rdf:RDF>
      <cc:Work
         rdf:about="">
        <dc:format>image/svg+xml</dc:format>
        <dc:type
           rdf:resource="http://purl.org/dc/dcmitype/StillImage" />
      </cc:Work>
    </rdf:RDF>
  </metadata>
  <defs
     id="defs8" />
  <sodipodi:namedview
     showguides="false"
     inkscape:current-layer="svg4"
     inkscape:window-maximized="1"
     inkscape:window-y="-11"
     inkscape:window-x="-11"
     inkscape:cy="12"
     inkscape:cx="12"
     inkscape:zoom="42"
     showgrid="false"
     id="namedview6"
     inkscape:window-height="2080"
     inkscape:window-width="3840"
     inkscape:pageshadow="2"
     inkscape:pageopacity="0"
     guidetolerance="10"
     gridtolerance="10"
     objecttolerance="10"
     borderopacity="1"
     bordercolor="#666666"
     pagecolor="#ffffff" />
  <path
     style="stroke-width:60.4723"
     id="path2"
     fill="#ffffff"
     d="M 146.30566,311.1838 C 89.713787,309.97435 50.934056,306.92292 38.712799,302.71811 24.384991,297.78866 12.673995,285.76151 8.2619073,271.44526 -0.17501416,244.06924 -2.6466196,166.85265 3.170545,112.38332 6.2647626,83.410473 10.14127,72.984254 21.933402,61.918892 29.649619,54.678233 37.418646,51.09572 49.617087,49.153171 91.447611,42.491849 225.37148,40.873994 301.74679,46.107368 c 39.23234,2.688231 50.21728,5.788642 61.8988,17.470071 8.15737,8.157313 11.85096,16.065295 14.66051,31.387971 8.33057,45.43333 7.35575,136.84729 -1.84803,173.28972 -4.31411,17.08184 -15.57746,29.50053 -31.64989,34.89629 -15.66161,5.25805 -77.54865,8.53462 -156.43876,8.28306 -19.61121,-0.0605 -38.53993,-0.17537 -42.06382,-0.24794 z m 57.71837,-105.06256 c 27.35151,-15.70421 49.55977,-28.71988 49.35167,-28.92361 -0.51825,-0.50797 -97.88447,-56.66664 -98.96406,-57.08094 -0.77605,-0.29631 -0.86319,5.46729 -0.86319,57.11323 0,31.59443 0.16751,57.44443 0.37251,57.44443 0.20501,0 22.7513,-12.8489 50.10282,-28.55311 z" />
</svg>
